<?xml version="1.0" encoding="UTF-8"?>
<svg id="Layer_2" xmlns="http://www.w3.org/2000/svg" version="1.1" viewBox="0 0 189.3 600.8">
  <!-- Generator: Adobe Illustrator 30.1.0, SVG Export Plug-In . SVG Version: 2.1.1 Build 136)  -->
  <defs>
    <style>
      .st0 {
        fill: none;
        stroke: #fff;
        stroke-miterlimit: 10;
      }
    </style>
  </defs>
  <g id="Layer_2-2">
    <path class="st0" d="M14.3,563.8l19.8,19.8c2.4,2.4,5.6,3.7,8.9,3.7h103.3c3.4,0,6.6-1.3,8.9-3.7l19.7-19.7c5.1-5,1.5-13.7-5.7-13.7l-149.4-.2c-7.1,0-10.7,8.6-5.7,13.7h0Z"/>
    <path class="st0" d="M180.1,2.2c-1-1.1-2.4-1.7-3.8-1.7H13.1c-1.5,0-2.9.6-3.8,1.7L1.5,11c-.6.7-1,1.7-1,2.7v546.1c0,5.1,2,10,5.7,13.7l21.3,21.3c3.6,3.6,8.6,5.7,13.7,5.7h107.1c5.1,0,10.1-2,13.7-5.7l21.3-21.3c3.6-3.6,5.7-8.5,5.7-13.7V13.6c0-1-.4-1.9-1-2.7l-7.7-8.7h0Z"/>
    <line class="st0" x1=".5" y1="12.1" x2="188.8" y2="12.1"/>
    <path class="st0" d="M188.7,265.9v11c0-9.4-7.6-17-17-17h-29.6v6.2h-47.5,0-47.5v-6.2h-29.6c-9.4,0-17,7.6-17,17v-11"/>
    <rect class="st0" x="6.8" y="275.2" width="175.5" height="263.2" rx="10" ry="10"/>
    <rect class="st0" x="17.3" y="283.9" width="46.6" height="26.7" rx="4.1" ry="4.1"/>
    <rect class="st0" x="71.2" y="283.9" width="46.6" height="26.7" rx="4.1" ry="4.1"/>
    <rect class="st0" x="125.2" y="283.9" width="46.6" height="26.7" rx="4.1" ry="4.1"/>
    <rect class="st0" x="17.3" y="402.7" width="46.6" height="26.7" rx="4.1" ry="4.1"/>
    <rect class="st0" x="71.2" y="402.7" width="46.6" height="26.7" rx="4.1" ry="4.1"/>
    <rect class="st0" x="125.2" y="402.7" width="46.6" height="26.7" rx="4.1" ry="4.1"/>
    <rect class="st0" x="17.3" y="435.7" width="46.6" height="26.7" rx="4.1" ry="4.1"/>
    <rect class="st0" x="71.2" y="435.7" width="46.6" height="26.7" rx="4.1" ry="4.1"/>
    <rect class="st0" x="125.2" y="435.7" width="46.6" height="26.7" rx="4.1" ry="4.1"/>
    <rect class="st0" x="17.3" y="468.8" width="46.6" height="26.7" rx="4.1" ry="4.1"/>
    <rect class="st0" x="71.2" y="468.8" width="46.6" height="26.7" rx="4.1" ry="4.1"/>
    <rect class="st0" x="125.2" y="468.8" width="46.6" height="26.7" rx="4.1" ry="4.1"/>
    <rect class="st0" x="17.3" y="501.9" width="46.6" height="26.7" rx="4.1" ry="4.1"/>
    <rect class="st0" x="71.2" y="501.9" width="46.6" height="26.7" rx="4.1" ry="4.1"/>
    <rect class="st0" x="125.2" y="501.9" width="46.6" height="26.7" rx="4.1" ry="4.1"/>
    <rect class="st0" x="17.3" y="317" width="153.1" height="76.7" rx="4.2" ry="4.2"/>
    <polygon class="st0" points="121.7 317 66.4 317 42.3 355.3 66.4 393.6 121.7 393.6 145.8 355.3 121.7 317"/>
    <line class="st0" x1="170.4" y1="355.3" x2="145.8" y2="355.3"/>
    <line class="st0" x1="17.3" y1="355.3" x2="42.3" y2="355.3"/>
    <circle class="st0" cx="93.6" cy="355.3" r="20.4"/>
    <circle class="st0" cx="93.6" cy="355.3" r="12.5"/>
    <polyline class="st0" points="89 327.2 94.6 321.7 100.1 327.2"/>
    <polyline class="st0" points="100.1 383.4 94.6 388.9 89 383.4"/>
    <polyline class="st0" points="66.5 360.8 60.9 355.3 66.5 349.8"/>
    <polyline class="st0" points="122.7 349.8 128.2 355.3 122.7 360.8"/>
  </g>
</svg>