<svg width="225" height="64" viewBox="0 0 225 64" fill="none" xmlns="http://www.w3.org/2000/svg">
<path d="M32 64C49.7 64 64 49.7 64 32C64 14.3 49.7 2.6093e-06 32 1.1173e-06C14.3 -3.74699e-07 8.00409e-06 14.3 6.5121e-06 32C5.0201e-06 49.7 14.3 64 32 64ZM32 10.7C36.4 20.1 44 27.6 53.3 32C43.9 36.4 36.4 44 32 53.3C27.6 43.9 20 36.4 10.7 32C20.1 27.6 27.6 20 32 10.7Z" fill="white"/>
<path d="M208.431 47.582C205.659 47.582 203.237 47.358 201.165 46.91C199.093 46.434 197.357 45.762 195.957 44.894C194.557 44.026 193.493 43.004 192.765 41.828C192.037 40.652 191.631 39.364 191.547 37.964H198.561C198.729 38.636 199.051 39.266 199.527 39.854C200.003 40.414 200.633 40.918 201.417 41.366C202.229 41.786 203.209 42.122 204.357 42.374C205.533 42.598 206.891 42.71 208.431 42.71C210.363 42.71 212.001 42.542 213.345 42.206C214.717 41.87 215.753 41.38 216.453 40.736C217.181 40.092 217.545 39.308 217.545 38.384C217.545 37.824 217.405 37.334 217.125 36.914C216.845 36.494 216.397 36.144 215.781 35.864C215.193 35.556 214.423 35.332 213.471 35.192L203.349 33.932C201.669 33.708 200.143 33.4 198.771 33.008C197.399 32.588 196.223 32.042 195.243 31.37C194.291 30.698 193.549 29.872 193.017 28.892C192.513 27.884 192.261 26.708 192.261 25.364C192.261 23.992 192.611 22.76 193.311 21.668C194.011 20.548 195.033 19.61 196.377 18.854C197.721 18.07 199.359 17.468 201.291 17.048C203.223 16.628 205.421 16.418 207.885 16.418C210.433 16.418 212.645 16.628 214.521 17.048C216.397 17.468 217.965 18.07 219.225 18.854C220.485 19.638 221.437 20.562 222.081 21.626C222.753 22.69 223.131 23.852 223.215 25.112H216.201C216.089 24.356 215.711 23.698 215.067 23.138C214.423 22.55 213.499 22.102 212.295 21.794C211.091 21.458 209.565 21.29 207.717 21.29C205.897 21.29 204.343 21.444 203.055 21.752C201.795 22.06 200.843 22.494 200.199 23.054C199.583 23.614 199.275 24.286 199.275 25.07C199.275 25.658 199.457 26.19 199.821 26.666C200.185 27.114 200.703 27.478 201.375 27.758C202.075 28.038 202.901 28.248 203.853 28.388L214.395 29.69C216.551 29.942 218.385 30.418 219.897 31.118C221.409 31.818 222.571 32.742 223.383 33.89C224.195 35.038 224.601 36.438 224.601 38.09C224.601 39.658 224.251 41.03 223.551 42.206C222.851 43.382 221.815 44.376 220.443 45.188C219.071 45.972 217.377 46.574 215.361 46.994C213.373 47.386 211.063 47.582 208.431 47.582Z" fill="white"/>
<path d="M169.799 47.582C165.963 47.582 162.617 46.952 159.761 45.692C156.905 44.432 154.693 42.64 153.125 40.316C151.557 37.964 150.773 35.192 150.773 32C150.773 30.404 150.969 28.92 151.361 27.548C151.753 26.148 152.341 24.874 153.125 23.726C153.909 22.55 154.847 21.514 155.939 20.618C157.059 19.722 158.319 18.966 159.719 18.35C161.147 17.706 162.701 17.23 164.381 16.922C166.061 16.586 167.867 16.418 169.799 16.418C173.663 16.418 177.009 17.062 179.837 18.35C182.693 19.61 184.905 21.402 186.473 23.726C188.041 26.05 188.825 28.808 188.825 32C188.825 33.596 188.629 35.094 188.237 36.494C187.845 37.866 187.257 39.14 186.473 40.316C185.689 41.464 184.737 42.486 183.617 43.382C182.525 44.278 181.265 45.048 179.837 45.692C178.437 46.308 176.897 46.77 175.217 47.078C173.537 47.414 171.731 47.582 169.799 47.582ZM169.799 42.374C171.031 42.374 172.179 42.276 173.243 42.08C174.307 41.856 175.287 41.534 176.183 41.114C177.079 40.694 177.863 40.19 178.535 39.602C179.235 38.986 179.823 38.3 180.299 37.544C180.803 36.76 181.167 35.906 181.391 34.982C181.643 34.03 181.769 33.036 181.769 32C181.769 29.872 181.279 28.038 180.299 26.498C179.347 24.93 177.975 23.726 176.183 22.886C174.391 22.046 172.263 21.626 169.799 21.626C168.567 21.626 167.419 21.738 166.355 21.962C165.291 22.158 164.311 22.466 163.415 22.886C162.519 23.306 161.721 23.824 161.021 24.44C160.349 25.028 159.761 25.714 159.257 26.498C158.781 27.254 158.417 28.094 158.165 29.018C157.941 29.942 157.829 30.936 157.829 32C157.829 34.1 158.305 35.934 159.257 37.502C160.237 39.07 161.623 40.274 163.415 41.114C165.235 41.954 167.363 42.374 169.799 42.374Z" fill="white"/>
<path d="M121.715 46.9939V17.0059H128.183V37.2079L126.587 36.7879L139.649 25.4059H147.503L137.465 34.0579C138.389 34.3099 139.159 34.6879 139.775 35.1919C140.391 35.6679 141.077 36.3819 141.833 37.3339L149.393 46.9939H141.749L135.869 39.5179C135.281 38.7339 134.609 38.2999 133.853 38.2159C133.097 38.1319 132.327 38.4399 131.543 39.1399L126.965 43.0459L128.183 39.0559V46.9939H121.715Z" fill="white"/>
<path d="M90.9531 46.9939V25.4059H97.4211V31.5379L96.8331 30.6139C97.4211 29.3259 98.2191 28.2619 99.2271 27.4219C100.235 26.5539 101.425 25.9099 102.797 25.4899C104.197 25.0419 105.723 24.8179 107.375 24.8179C109.055 24.8179 110.525 25.0419 111.785 25.4899C113.073 25.9379 114.151 26.6099 115.019 27.5059C115.887 28.3739 116.545 29.4519 116.993 30.7399C117.469 31.9999 117.707 33.4419 117.707 35.0659V46.9939H111.197V36.3679C111.197 34.9679 110.959 33.7779 110.483 32.7979C110.007 31.7899 109.293 31.0199 108.341 30.4879C107.389 29.9279 106.185 29.6479 104.729 29.6479C103.217 29.6479 101.915 29.9419 100.823 30.5299C99.7311 31.1179 98.8911 31.9299 98.3031 32.9659C97.7151 34.0019 97.4211 35.1919 97.4211 36.5359V46.9939H90.9531Z" fill="white"/>
<path d="M80.126 46.9939V25.4059H86.594V46.9939H80.126ZM80 22.3819V17.0059H86.72V22.3819H80Z" fill="white"/>
</svg>
