<?xml version="1.0" encoding="UTF-8"?>
<svg id="Layer_2" xmlns="http://www.w3.org/2000/svg" version="1.1" viewBox="0 0 109.5 37.7">
  <!-- Generator: Adobe Illustrator 30.1.0, SVG Export Plug-In . SVG Version: 2.1.1 Build 136)  -->
  <defs>
    <style>
      .st0 {
        fill: #fff;
      }
    </style>
  </defs>
  <g id="Layer_1-2">
    <path class="st0" d="M77.8,17.1c-5.9-.8-11.6-2.3-15.7-6.5C59.1,7.5,56.6,3.9,54.7,0c-1.9,4-4.4,7.5-7.4,10.6-4.1,4.2-9.8,5.7-15.7,6.5L0,18.9l31.7,1.7c5.9.8,11.6,2.3,15.7,6.5,3,3.1,5.5,6.7,7.4,10.6,1.9-4,4.4-7.5,7.4-10.6,4.1-4.2,9.8-5.7,15.7-6.5l31.7-1.7s-31.7-1.7-31.7-1.7Z"/>
  </g>
</svg>