<?xml version="1.0" encoding="UTF-8"?>
<svg xmlns="http://www.w3.org/2000/svg" version="1.1" viewBox="0 0 384.9 541.4">
  <!-- Generator: Adobe Illustrator 30.1.0, SVG Export Plug-In . SVG Version: 2.1.1 Build 136)  -->
  <defs>
    <style>
      .st0 {
        stroke-linejoin: round;
      }

      .st0, .st1 {
        fill: none;
        stroke: #fff;
        stroke-width: 1.5;
      }

      .st1 {
        stroke-miterlimit: 10;
      }

      .st2 {
        fill: #fff;
      }

      .st3 {
        display: none;
      }
    </style>
  </defs>
  <g id="Layer_3" class="st3">
    <rect y=".1" width="384.9" height="541.3"/>
  </g>
  <g id="Layer_2">
    <g id="Layer_31" data-name="Layer_3">
      <rect class="st1" x="5" y=".5" width="374.9" height="539.6" rx="6.9" ry="6.9"/>
      <rect class="st1" x="69.5" y="534.1" width="6.6" height="6"/>
      <rect class="st1" x="308.2" y="534.1" width="6.6" height="6"/>
    </g>
  </g>
  <g id="Layer_5">
    <g>
      <path class="st1" d="M13.5,534.1c-1.7,0-3-1.3-3-3v-150.5c0-2.2,1.8-4,4-4h354.9c2.2,0,4,1.8,4,4v150.5c0,1.7-1.3,3-3,3H13.5Z"/>
      <rect class="st1" x="15.7" y="382.9" width="58.8" height="30.2"/>
      <polyline class="st0" points="20.2 387.5 15.7 413 20.2 408.4 69.9 408.4 74.4 413 69.9 387.5"/>
      <polyline class="st1" points="74.4 382.9 69.9 387.5 20.2 387.5 15.7 382.9"/>
      <rect class="st1" x="74.4" y="382.9" width="58.7" height="30.2"/>
      <polyline class="st0" points="78.9 387.5 74.4 413 78.9 408.4 128.7 408.4 133.2 413 128.7 387.5"/>
      <polyline class="st1" points="133.2 382.9 128.7 387.5 78.9 387.5 74.4 382.9"/>
      <rect class="st1" x="133.2" y="382.9" width="58.8" height="30.2"/>
      <polyline class="st0" points="137.6 387.5 133.2 413 137.6 408.4 187.4 408.4 191.9 413 187.4 387.5"/>
      <polyline class="st1" points="191.9 382.9 187.4 387.5 137.6 387.5 133.2 382.9"/>
      <rect class="st1" x="191.9" y="382.9" width="58.8" height="30.2"/>
      <polyline class="st0" points="196.4 387.5 191.9 413 196.4 408.4 246.2 408.4 250.7 413 246.2 387.5"/>
      <polyline class="st1" points="250.7 382.9 246.2 387.5 196.4 387.5 191.9 382.9"/>
      <rect class="st1" x="250.7" y="382.9" width="58.8" height="30.2"/>
      <polyline class="st0" points="255.1 387.5 250.7 413 255.1 408.4 304.9 408.4 309.4 413 304.9 387.5"/>
      <polyline class="st1" points="309.4 382.9 304.9 387.5 255.1 387.5 250.7 382.9"/>
      <rect class="st1" x="309.4" y="382.9" width="58.8" height="30.2"/>
      <polyline class="st0" points="313.9 387.5 309.4 413 313.9 408.4 363.7 408.4 368.1 413 363.7 387.5"/>
      <polyline class="st1" points="368.1 382.9 363.7 387.5 313.9 387.5 309.4 382.9"/>
      <rect class="st1" x="15.7" y="418.9" width="35.2" height="30.2"/>
      <polyline class="st0" points="20.2 423.5 15.7 449 20.2 444.4 46.4 444.4 50.9 449 46.4 423.5"/>
      <polyline class="st1" points="50.9 418.9 46.4 423.5 20.2 423.5 15.7 418.9"/>
      <rect class="st1" x="50.9" y="418.9" width="35.3" height="30.2"/>
      <polyline class="st0" points="55.5 423.5 50.9 449 55.5 444.4 81.6 444.4 86.2 449 81.6 423.5"/>
      <polyline class="st1" points="86.2 418.9 81.6 423.5 55.5 423.5 50.9 418.9"/>
      <rect class="st1" x="86.2" y="418.9" width="35.2" height="30.2"/>
      <polyline class="st0" points="90.7 423.5 86.2 449 90.7 444.4 116.9 444.4 121.4 449 116.9 423.5"/>
      <polyline class="st1" points="121.4 418.9 116.9 423.5 90.7 423.5 86.2 418.9"/>
      <rect class="st1" x="121.4" y="418.9" width="35.2" height="30.2"/>
      <polyline class="st0" points="126 423.5 121.4 449 126 444.4 152.1 444.4 156.7 449 152.1 423.5"/>
      <polyline class="st1" points="156.7 418.9 152.1 423.5 126 423.5 121.4 418.9"/>
      <rect class="st1" x="156.7" y="418.9" width="35.2" height="30.2"/>
      <polyline class="st0" points="161.2 423.5 156.7 449 161.2 444.4 187.3 444.4 191.9 449 187.3 423.5"/>
      <polyline class="st1" points="191.9 418.9 187.3 423.5 161.2 423.5 156.7 418.9"/>
      <rect class="st1" x="191.9" y="418.9" width="35.2" height="30.2"/>
      <polyline class="st0" points="196.5 423.5 191.9 449 196.5 444.4 222.6 444.4 227.2 449 222.6 423.5"/>
      <polyline class="st1" points="227.2 418.9 222.6 423.5 196.5 423.5 191.9 418.9"/>
      <rect class="st1" x="227.2" y="418.9" width="35.3" height="30.2"/>
      <polyline class="st0" points="231.7 423.5 227.2 449 231.7 444.4 257.8 444.4 262.4 449 257.8 423.5"/>
      <polyline class="st1" points="262.4 418.9 257.8 423.5 231.7 423.5 227.2 418.9"/>
      <rect class="st1" x="262.4" y="418.9" width="35.2" height="30.2"/>
      <polyline class="st0" points="267 423.5 262.4 449 267 444.4 293.1 444.4 297.7 449 293.1 423.5"/>
      <polyline class="st1" points="297.7 418.9 293.1 423.5 267 423.5 262.4 418.9"/>
      <rect class="st1" x="297.7" y="418.9" width="35.2" height="30.2"/>
      <polyline class="st0" points="302.2 423.5 297.7 449 302.2 444.4 328.3 444.4 332.9 449 328.3 423.5"/>
      <polyline class="st1" points="332.9 418.9 328.3 423.5 302.2 423.5 297.7 418.9"/>
      <rect class="st1" x="332.9" y="418.9" width="35.2" height="30.2"/>
      <polyline class="st0" points="337.5 423.5 332.9 449 337.5 444.4 363.6 444.4 368.1 449 363.6 423.5"/>
      <polyline class="st1" points="368.1 418.9 363.6 423.5 337.5 423.5 332.9 418.9"/>
      <rect class="st1" x="15.7" y="454.9" width="35.2" height="30.2"/>
      <polyline class="st0" points="20.2 459.5 15.7 485.1 20.2 480.4 46.4 480.4 50.9 485.1 46.4 459.5"/>
      <polyline class="st1" points="50.9 454.9 46.4 459.5 20.2 459.5 15.7 454.9"/>
      <rect class="st1" x="50.9" y="454.9" width="35.3" height="30.2"/>
      <polyline class="st0" points="55.5 459.5 50.9 485.1 55.5 480.4 81.6 480.4 86.2 485.1 81.6 459.5"/>
      <polyline class="st1" points="86.2 454.9 81.6 459.5 55.5 459.5 50.9 454.9"/>
      <rect class="st1" x="86.2" y="454.9" width="35.2" height="30.2"/>
      <polyline class="st0" points="90.7 459.5 86.2 485.1 90.7 480.4 116.9 480.4 121.4 485.1 116.9 459.5"/>
      <polyline class="st1" points="121.4 454.9 116.9 459.5 90.7 459.5 86.2 454.9"/>
      <rect class="st1" x="121.4" y="454.9" width="35.2" height="30.2"/>
      <polyline class="st0" points="126 459.5 121.4 485.1 126 480.4 152.1 480.4 156.7 485.1 152.1 459.5"/>
      <polyline class="st1" points="156.7 454.9 152.1 459.5 126 459.5 121.4 454.9"/>
      <rect class="st1" x="156.7" y="454.9" width="35.2" height="30.2"/>
      <polyline class="st0" points="161.2 459.5 156.7 485.1 161.2 480.4 187.3 480.4 191.9 485.1 187.3 459.5"/>
      <polyline class="st1" points="191.9 454.9 187.3 459.5 161.2 459.5 156.7 454.9"/>
      <rect class="st1" x="191.9" y="454.9" width="35.2" height="30.2"/>
      <polyline class="st0" points="196.5 459.5 191.9 485.1 196.5 480.4 222.6 480.4 227.2 485.1 222.6 459.5"/>
      <polyline class="st1" points="227.2 454.9 222.6 459.5 196.5 459.5 191.9 454.9"/>
      <rect class="st1" x="227.2" y="454.9" width="35.3" height="30.2"/>
      <polyline class="st0" points="231.7 459.5 227.2 485.1 231.7 480.4 257.8 480.4 262.4 485.1 257.8 459.5"/>
      <polyline class="st1" points="262.4 454.9 257.8 459.5 231.7 459.5 227.2 454.9"/>
      <rect class="st1" x="262.4" y="454.9" width="35.2" height="30.2"/>
      <polyline class="st0" points="267 459.5 262.4 485.1 267 480.4 293.1 480.4 297.7 485.1 293.1 459.5"/>
      <polyline class="st1" points="297.7 454.9 293.1 459.5 267 459.5 262.4 454.9"/>
      <rect class="st1" x="297.7" y="454.9" width="35.2" height="30.2"/>
      <polyline class="st0" points="302.2 459.5 297.7 485.1 302.2 480.4 328.3 480.4 332.9 485.1 328.3 459.5"/>
      <polyline class="st1" points="332.9 454.9 328.3 459.5 302.2 459.5 297.7 454.9"/>
      <rect class="st1" x="332.9" y="454.9" width="35.2" height="30.2"/>
      <polyline class="st0" points="337.5 459.5 332.9 485.1 337.5 480.4 363.6 480.4 368.1 485.1 363.6 459.5"/>
      <polyline class="st1" points="368.1 454.9 363.6 459.5 337.5 459.5 332.9 454.9"/>
      <rect class="st1" x="15.7" y="490.1" width="35.2" height="30.2"/>
      <polyline class="st0" points="20.2 494.8 15.7 520.3 20.2 515.7 46.4 515.7 50.9 520.3 46.4 494.8"/>
      <polyline class="st1" points="50.9 490.1 46.4 494.8 20.2 494.8 15.7 490.1"/>
      <rect class="st1" x="50.9" y="490.1" width="35.3" height="30.2"/>
      <polyline class="st0" points="55.5 494.8 50.9 520.3 55.5 515.7 81.6 515.7 86.2 520.3 81.6 494.8"/>
      <polyline class="st1" points="86.2 490.1 81.6 494.8 55.5 494.8 50.9 490.1"/>
      <rect class="st1" x="86.2" y="490.1" width="35.2" height="30.2"/>
      <polyline class="st0" points="90.7 494.8 86.2 520.3 90.7 515.7 116.9 515.7 121.4 520.3 116.9 494.8"/>
      <polyline class="st1" points="121.4 490.1 116.9 494.8 90.7 494.8 86.2 490.1"/>
      <rect class="st1" x="121.4" y="490.1" width="35.2" height="30.2"/>
      <polyline class="st0" points="126 494.8 121.4 520.3 126 515.7 152.1 515.7 156.7 520.3 152.1 494.8"/>
      <polyline class="st1" points="156.7 490.1 152.1 494.8 126 494.8 121.4 490.1"/>
      <rect class="st1" x="156.7" y="490.1" width="70.5" height="30.2"/>
      <polyline class="st0" points="161.2 494.8 156.7 520.3 161.2 515.7 222.6 515.7 227.2 520.3 222.6 494.8"/>
      <polyline class="st1" points="227.2 490.1 222.6 494.8 161.2 494.8 156.7 490.1"/>
      <rect class="st1" x="227.2" y="490.1" width="35.3" height="30.2"/>
      <polyline class="st0" points="231.7 494.8 227.2 520.3 231.7 515.7 257.8 515.7 262.4 520.3 257.8 494.8"/>
      <polyline class="st1" points="262.4 490.1 257.8 494.8 231.7 494.8 227.2 490.1"/>
      <rect class="st1" x="262.4" y="490.1" width="35.2" height="30.2"/>
      <polyline class="st0" points="267 494.8 262.4 520.3 267 515.7 293.1 515.7 297.7 520.3 293.1 494.8"/>
      <polyline class="st1" points="297.7 490.1 293.1 494.8 267 494.8 262.4 490.1"/>
      <rect class="st1" x="297.7" y="490.1" width="35.2" height="30.2"/>
      <polyline class="st0" points="302.2 494.8 297.7 520.3 302.2 515.7 328.3 515.7 332.9 520.3 328.3 494.8"/>
      <polyline class="st1" points="332.9 490.1 328.3 494.8 302.2 494.8 297.7 490.1"/>
      <rect class="st1" x="332.9" y="490.1" width="35.2" height="30.2"/>
      <polyline class="st0" points="337.5 494.8 332.9 520.3 337.5 515.7 363.6 515.7 368.1 520.3 363.6 494.8"/>
      <polyline class="st1" points="368.1 490.1 363.6 494.8 337.5 494.8 332.9 490.1"/>
      <polygon class="st1" points="43.7 401.2 43.7 397.7 47.4 394.1 51 397.7 51 401.2 43.7 401.2"/>
      <line class="st1" x1="43.3" y1="403.1" x2="51.4" y2="403.1"/>
      <rect class="st1" x="217.8" y="395" width="6.9" height="6.9"/>
      <polygon class="st1" points="166 401.6 166 401.6 160.1 398.3 166 394.3 166 394.3 166 401.6"/>
      <polyline class="st1" points="352.7 502 352.7 507.5 343.7 507.5"/>
      <polyline class="st1" points="346.1 510 343.7 507.5 346.1 505.1"/>
      <line class="st1" x1="10.5" y1="520.3" x2="373.4" y2="520.3"/>
      <line class="st1" x1="10.5" y1="413" x2="373.4" y2="413"/>
      <line class="st1" x1="10.5" y1="418.9" x2="373.4" y2="418.9"/>
      <line class="st1" x1="10.5" y1="449" x2="373.4" y2="449"/>
      <line class="st1" x1="10.5" y1="454.9" x2="373.4" y2="454.9"/>
      <line class="st1" x1="10.5" y1="485.1" x2="373.4" y2="485.1"/>
      <line class="st1" x1="10.5" y1="490.1" x2="373.4" y2="490.1"/>
      <polygon class="st1" points="356.9 473.8 345.5 473.8 341.5 470.5 345.5 466.5 356.9 466.5 356.9 473.8"/>
      <line class="st1" x1="348.3" y1="468.2" x2="352.3" y2="472.2"/>
      <line class="st1" x1="348.3" y1="472.2" x2="352.3" y2="468.2"/>
      <path class="st2" d="M41.8,440.6l-.6.8-1.5-1.1c-.3.2-.7.3-1.1.5-.4.1-.8.2-1.3.2-1.5,0-2.6-.5-3.4-1.4-.7-.9-1.1-2.1-1.1-3.5s.3-2.3,1-3.2c.8-1.1,2-1.7,3.6-1.7s2.9.5,3.7,1.6c.6.8.9,1.9.9,3.2s0,1.2-.2,1.7c-.2.9-.6,1.5-1.1,2.1l1.3,1h0ZM38.1,439.8c.2,0,.4-.1.6-.2l-1-.8.6-.8,1.2,1c.4-.4.7-.9.8-1.5.1-.5.2-1.1.2-1.6,0-1.1-.3-2-.9-2.6-.6-.7-1.4-1-2.4-1s-1.8.3-2.4,1-.9,1.6-.9,3,.3,2,.8,2.7,1.4,1,2.5,1,.5,0,.7,0h0Z"/>
      <path class="st2" d="M69.1,431.3l1.8,7.6,2.1-7.6h1.4l2.1,7.6,1.8-7.6h1.4l-2.5,9.3h-1.3l-2.2-7.7-2.2,7.7h-1.3l-2.4-9.3h1.4,0Z"/>
      <path class="st2" d="M105.8,431.3h6.8v1.1h-5.6v2.8h5.2v1.1h-5.2v3.2h5.7v1.1h-6.9v-9.3h0Z"/>
      <path class="st2" d="M139.1,431.3h4.3c.7,0,1.3.1,1.7.3.9.4,1.3,1.1,1.3,2.2s-.1,1-.4,1.4-.6.6-1,.9c.4.1.6.3.8.6s.3.6.3,1.2v1.2c0,.4,0,.6.1.8,0,.3.2.5.4.6v.2h-1.6c0,0,0-.2-.1-.3s0-.4,0-.7v-1.6c-.1-.6-.3-1-.7-1.2-.2-.1-.6-.2-1.1-.2h-2.8v4h-1.3v-9.3h0ZM143.2,435.6c.6,0,1-.1,1.4-.4.3-.2.5-.7.5-1.3s-.2-1.1-.7-1.4c-.2-.1-.6-.2-1-.2h-3v3.2h2.9,0Z"/>
      <path class="st2" d="M97,398.4c0,.3.1.5.2.7.2.3.7.5,1.2.5s.7,0,.9-.2.4-.4.4-.7-.1-.4-.3-.5c-.1,0-.4-.2-.8-.3l-.8-.2c-.5-.1-.8-.2-1.1-.4-.4-.2-.6-.6-.6-1s.2-1,.6-1.3.9-.5,1.5-.5,1.4.2,1.8.7c.2.3.3.6.3,1h-.9c0-.2,0-.4-.2-.6-.2-.2-.6-.4-1.1-.4s-.6,0-.8.2-.3.3-.3.5.1.4.4.6c.1,0,.3.2.6.2h.6c.7.3,1.1.5,1.4.6.4.2.5.6.5,1.1s-.2.9-.6,1.3c-.4.4-.9.5-1.7.5s-1.4-.2-1.8-.6-.5-.8-.6-1.4h.9,0Z"/>
      <path class="st2" d="M105.1,394.5h1c-.1.4-.4,1.2-.9,2.4-.3,1-.6,1.7-.8,2.3-.5,1.4-.9,2.3-1.1,2.6s-.6.5-1.1.5-.2,0-.3,0c0,0-.2,0-.3,0v-.9c.2,0,.3,0,.3,0,0,0,.1,0,.2,0,.2,0,.3,0,.4,0,0,0,.2-.1.2-.2,0,0,0-.2.2-.4.1-.3.2-.5.2-.6l-2-5.7h1.1l1.5,4.5,1.5-4.5h0Z"/>
      <path class="st2" d="M106.9,394.5h.9v.8c.2-.3.4-.5.6-.6.3-.2.7-.3,1-.3s.8.1,1.1.3c.2.1.3.3.4.5.2-.3.4-.5.7-.7s.6-.2.9-.2c.7,0,1.2.3,1.5.8.1.3.2.7.2,1.2v3.7h-1v-3.9c0-.4,0-.6-.3-.8s-.4-.2-.7-.2-.7.1-.9.4c-.3.2-.4.7-.4,1.2v3.2h-.9v-3.6c0-.4,0-.6-.1-.8-.1-.3-.4-.4-.8-.4s-.7.1-.9.4c-.3.3-.4.8-.4,1.5v3h-.9v-5.6h0Z"/>
      <path class="st2" d="M275.2,394.6c.2-.4.7-.5,1.4-.5h.2c0,0,.1,0,.2,0v.9c-.1,0-.2,0-.2,0h-.1c-.3,0-.5,0-.6.2s0,.6,0,1.2h1v.8h-1v5.3h-1v-5.3h-.8v-.8h.8v-1c0-.4,0-.7.2-.9h0Z"/>
      <path class="st2" d="M278,396.4h1v.9c.3-.4.6-.6.9-.8.3-.2.7-.2,1.1-.2.9,0,1.4.3,1.7.9.2.3.2.8.2,1.4v3.9h-1v-3.9c0-.4,0-.7-.2-.9-.2-.4-.5-.6-1-.6s-.4,0-.6,0c-.3,0-.5.2-.7.5-.2.2-.3.4-.3.6,0,.2,0,.5,0,.9v3.2h-1v-6.1h0Z"/>
      <path class="st2" d="M334,398.8c.2,0,.4-.1.5-.3,0,0,0-.2,0-.4,0-.4-.1-.6-.4-.8s-.6-.2-1-.2-.9.1-1.1.4c-.1.2-.2.4-.2.7h-1c0-.8.3-1.3.7-1.6s1-.4,1.6-.4,1.3.1,1.7.4.7.7.7,1.3v3.5c0,.1,0,.2,0,.3,0,0,.1.1.3.1h.1c0,0,.1,0,.2,0v.8c-.2,0-.3,0-.4,0,0,0-.2,0-.3,0-.4,0-.6-.1-.8-.4,0-.1-.1-.3-.2-.6-.2.3-.5.5-.9.7-.4.2-.8.3-1.3.3s-1-.2-1.4-.5c-.4-.3-.5-.8-.5-1.3s.2-1,.5-1.3.8-.5,1.4-.6l1.6-.2h0ZM331.8,401.6c.2.2.5.3.8.3s.7,0,1-.2c.6-.3.9-.7.9-1.4v-.8c-.1,0-.3.1-.5.2-.2,0-.4,0-.6.1h-.6c-.4.1-.6.2-.8.3-.3.2-.5.5-.5.9s.1.5.3.7h0Z"/>
      <path class="st2" d="M337.2,394.2h1v8.4h-1v-8.4Z"/>
      <path class="st2" d="M339.9,394.7h1v1.7h1v.8h-1v4c0,.2,0,.4.2.4,0,0,.2,0,.4,0h.2c0,0,.1,0,.2,0v.8c-.1,0-.2,0-.4,0s-.3,0-.4,0c-.5,0-.8-.1-1-.4-.2-.2-.2-.6-.2-1v-4h-.8v-.8h.8v-1.7h0Z"/>
      <path class="st2" d="M181,431.3v1.1h-3.2v8.2h-1.3v-8.2h-3.2v-1.1h7.6,0Z"/>
      <path class="st2" d="M200,431.3h1.5l2.7,4.5,2.7-4.5h1.5l-3.6,5.6v3.8h-1.3v-3.8l-3.6-5.6h0Z"/>
      <path class="st2" d="M236.5,431.3v5.8c0,.7.1,1.2.4,1.7.4.7,1,1,1.9,1s1.8-.4,2.2-1.1c.2-.4.3-.9.3-1.6v-5.8h1.3v5.2c0,1.1-.2,2-.5,2.6-.6,1.1-1.6,1.7-3.2,1.7s-2.7-.6-3.2-1.7c-.3-.6-.5-1.5-.5-2.6v-5.2h1.3Z"/>
      <path class="st2" d="M272.6,431.3h1.3v9.3h-1.3v-9.3Z"/>
      <path class="st2" d="M314.8,432.7c.6.8.9,1.9.9,3.2s-.4,2.5-1.1,3.5c-.8,1.1-2,1.6-3.6,1.6s-2.6-.5-3.4-1.4c-.7-.9-1.1-2.1-1.1-3.5s.3-2.3,1-3.2c.8-1.1,2-1.7,3.6-1.7s2.9.5,3.7,1.6h0ZM313.7,438.6c.5-.8.8-1.7.8-2.8s-.3-2-.9-2.6c-.6-.7-1.4-1-2.4-1s-1.8.3-2.4,1-.9,1.6-.9,2.9.3,1.9.8,2.6c.5.7,1.4,1.1,2.6,1.1s1.9-.4,2.4-1.2h0Z"/>
      <path class="st2" d="M340.5,431.3h4.2c.8,0,1.5.2,2,.7s.8,1.1.8,2-.2,1.4-.7,1.9c-.5.5-1.1.8-2.1.8h-2.9v3.9h-1.3v-9.3h0ZM345.4,432.6c-.3-.1-.7-.2-1.1-.2h-2.5v3.2h2.5c.6,0,1-.1,1.4-.4s.5-.7.5-1.3-.2-1.1-.8-1.4h0Z"/>
      <path class="st2" d="M35.9,466.6h1.4l3.4,9.3h-1.4l-1-2.8h-3.7l-1,2.8h-1.3l3.5-9.3ZM38,472.1l-1.4-4.1-1.5,4.1h2.9,0Z"/>
      <path class="st2" d="M69.3,472.9c0,.5.2,1,.4,1.3.4.6,1.1.9,2.2.9s.9,0,1.2-.2c.7-.3,1.1-.7,1.1-1.4s-.2-.9-.5-1.1-.8-.4-1.5-.5l-1.2-.3c-.8-.2-1.4-.4-1.7-.6-.6-.4-.9-1-.9-1.8s.3-1.5.8-2.1c.6-.5,1.4-.8,2.4-.8s1.8.2,2.4.7c.7.5,1,1.2,1,2.3h-1.2c0-.5-.2-.9-.4-1.1-.4-.5-1-.7-1.9-.7s-1.2.2-1.6.5-.5.7-.5,1.1.2.8.6,1c.2.1.8.3,1.7.5l1.3.3c.6.1,1.1.3,1.4.6.6.4.9,1.1.9,1.9s-.4,1.8-1.1,2.2c-.7.4-1.6.7-2.6.7s-2-.3-2.7-.9c-.6-.6-1-1.4-.9-2.4h1.2Z"/>
      <path class="st2" d="M103.7,466.6h3.8c1.3,0,2.3.5,3,1.4.6.8.9,1.9.9,3.2s-.2,1.9-.6,2.7c-.7,1.4-1.8,2.1-3.4,2.1h-3.7v-9.3h0ZM107.2,474.8c.4,0,.8,0,1-.1.5-.2.9-.5,1.2-1,.2-.4.4-.9.5-1.5,0-.4,0-.7,0-1,0-1.1-.2-2-.7-2.7s-1.2-1-2.2-1h-2.2v7.2h2.2,0Z"/>
      <path class="st2" d="M139,466.6h6.5v1.1h-5.2v2.8h4.6v1.1h-4.6v4.2h-1.3v-9.3h0Z"/>
      <path class="st2" d="M180.4,466.9c.9.5,1.5,1.3,1.7,2.6h-1.3c-.1-.7-.5-1.2-.9-1.5-.5-.3-1.1-.5-1.8-.5s-1.6.3-2.1,1c-.6.6-.9,1.6-.9,2.9s.2,2,.7,2.7c.5.7,1.3,1,2.4,1s1.5-.2,2.1-.7c.5-.5.8-1.3.8-2.4h-2.9v-1h4.1v5h-.8l-.3-1.2c-.4.5-.8.8-1.1,1-.6.3-1.2.5-2.1.5s-2-.4-2.8-1.1c-.9-.9-1.3-2.1-1.3-3.7s.4-2.8,1.3-3.7c.8-.9,1.8-1.3,3.1-1.3s1.6.2,2.2.5h0Z"/>
      <path class="st2" d="M200.8,466.6h1.3v3.9h4.8v-3.9h1.3v9.3h-1.3v-4.4h-4.8v4.4h-1.3v-9.3Z"/>
      <path class="st2" d="M239.7,473.1c0,.8-.1,1.4-.4,1.8-.4.8-1.3,1.2-2.5,1.2s-1.3-.2-1.8-.6-.8-1-.8-2v-.7h1.2v.7c0,.5.1.9.3,1.1.2.3.6.4,1.1.4s1.1-.2,1.3-.7c.1-.3.2-.8.2-1.6v-6.2h1.3v6.5h0Z"/>
      <path class="st2" d="M270.4,466.6h1.2v4.6l4.7-4.6h1.8l-4,3.8,4.1,5.6h-1.7l-3.4-4.7-1.5,1.4v3.2h-1.2v-9.3Z"/>
      <path class="st2" d="M304.1,466.6h1.3v8.2h4.7v1.1h-6v-9.3h0Z"/>
      <path class="st2" d="M32.5,510.1l5.8-7.2h-5.3v-1.1h7v1.1l-5.8,7.1h5.8v1.1h-7.4v-1h0Z"/>
      <path class="st2" d="M69.2,511.2h-1.5l3.3-4.8-3.1-4.5h1.6l2.4,3.6,2.3-3.6h1.5l-3.1,4.5,3.3,4.8h-1.6l-2.5-3.8s-2.6,3.8-2.6,3.8Z"/>
      <path class="st2" d="M110.3,502.5c.7.6,1,1.3,1.1,2.1h-1.2c-.1-.6-.4-1.1-.8-1.4-.4-.4-1-.5-1.7-.5s-1.6.3-2.2,1-.8,1.6-.8,3,.2,2,.8,2.7,1.3,1,2.3,1,1.6-.4,2.1-1.1c.2-.4.4-.9.6-1.5h1.2c-.1,1-.5,1.8-1.1,2.5-.7.8-1.7,1.2-3,1.2s-2-.3-2.7-1c-1-.9-1.4-2.2-1.4-4s.4-2.5,1.1-3.4c.8-1,1.9-1.4,3.2-1.4s2.1.3,2.7.9h0Z"/>
      <path class="st2" d="M139.7,501.9l2.7,7.9,2.7-7.9h1.4l-3.4,9.3h-1.4l-3.4-9.3h1.4Z"/>
      <path class="st2" d="M235.1,501.9h4.1c1.1,0,1.9.3,2.4,1,.3.4.4.8.4,1.3s-.2,1.1-.5,1.5c-.2.2-.4.4-.8.5.5.2.8.4,1.1.6.4.4.6,1,.6,1.7s-.2,1.1-.6,1.6c-.6.7-1.5,1.1-2.7,1.1h-4v-9.3h0ZM238.7,505.8c.5,0,1,0,1.3-.2.5-.2.7-.6.7-1.3s-.2-1-.8-1.2c-.3-.1-.7-.2-1.3-.2h-2.3v2.9h2.3ZM239.1,510.1c.8,0,1.4-.2,1.7-.7.2-.3.3-.6.3-1,0-.7-.3-1.1-.9-1.4-.3-.1-.8-.2-1.3-.2h-2.6v3.3h2.8Z"/>
      <path class="st2" d="M270.4,501.9h1.5l4.7,7.5v-7.5h1.2v9.3h-1.4l-4.8-7.5v7.5h-1.2v-9.3Z"/>
      <path class="st2" d="M304.1,501.9h1.8l2.7,7.9,2.7-7.9h1.8v9.3h-1.2v-5.5c0-.2,0-.5,0-1,0-.4,0-.9,0-1.4l-2.7,7.9h-1.3l-2.7-7.9v.3c0,.2,0,.6,0,1s0,.8,0,1v5.5h-1.2v-9.3h0Z"/>
    </g>
  </g>
  <g id="Layer_4">
    <g>
      <path class="st1" d="M380.1,204.1h.1c2.2,0,4,1.8,4,3.9v56.3c0,2.2-1.8,4-4,4h-.1v-64.1h0Z"/>
      <path class="st1" d="M380.1,98h.1c2.2,0,4,1.8,4,3.9v77.8c0,2.2-1.8,4-4,4h-.1v-85.7h0Z"/>
      <path class="st1" d="M5.2,216.8h0v48.2h-.1c-2.2,0-4-1.8-4-4v-40.3c0-2.2,1.8-3.9,4-3.9h.1Z"/>
      <path class="st1" d="M5.2,285.5h0v48.2h-.1c-2.2,0-4-1.8-4-4v-40.3c0-2.2,1.8-3.9,4-3.9h.1Z"/>
    </g>
  </g>
</svg>