<?xml version="1.0" encoding="UTF-8"?><svg id="Layer_2" xmlns="http://www.w3.org/2000/svg" viewBox="0 0 384.87 583.36"><defs><style>.cls-1{fill:#ffffff;}.cls-2{stroke-miterlimit:10;}.cls-2,.cls-3{fill:none;stroke:#fff;stroke-width:.75px;}.cls-3{stroke-linejoin:round;}</style></defs><g id="Layer_2-2"><rect x="19.14" y="59.76" width="344.22" height="344.22" rx="5" ry="5" fill="none" stroke="#fff" stroke-width=".75"/><rect class="cls-2" x="4.46" y=".38" width="374.93" height="582.61" rx="6.92" ry="6.92"/><rect class="cls-2" x="10.46" y="6.38" width="362.93" height="570.61" rx="3" ry="3"/><rect class="cls-2" x="10.46" y="416.16" width="362.93" height="6.3"/><path class="cls-2" d="M379.39,140.73h0c2.82,0,5.1,2.29,5.1,5.1v75.69c0,2.82-2.29,5.1-5.1,5.1h0v-85.9h0Z"/><path class="cls-2" d="M379.39,246.95h.14c2.18,0,3.95,1.77,3.95,3.95v56.26c0,2.18-1.77,3.95-3.95,3.95h-.14v-64.15h0Z"/><path class="cls-2" d="M.45,259.61h0c2.22,0,4.02,1.8,4.02,4.02v40.32c0,2.18-1.77,3.95-3.95,3.95h-.14v-48.21s.03-.07.07-.07Z" transform="translate(4.84 567.49) rotate(-180)"/><path class="cls-2" d="M.45,328.37h0c2.22,0,4.02,1.8,4.02,4.02v40.32c0,2.18-1.77,3.95-3.95,3.95h-.14v-48.21s.03-.07.07-.07Z" transform="translate(4.84 705.03) rotate(-180)"/><rect class="cls-2" x="15.65" y="422.46" width="58.75" height="30.16"/><polyline class="cls-3" points="20.13 427.08 15.65 452.62 20.13 447.99 69.92 447.99 74.4 452.62 69.92 427.08"/><polyline class="cls-2" points="74.4 422.46 69.92 427.08 20.13 427.08 15.65 422.46"/><rect class="cls-2" x="74.4" y="422.46" width="58.75" height="30.16"/><polyline class="cls-3" points="78.87 427.08 74.4 452.62 78.87 447.99 128.67 447.99 133.14 452.62 128.67 427.08"/><polyline class="cls-2" points="133.14 422.46 128.67 427.08 78.87 427.08 74.4 422.46"/><rect class="cls-2" x="133.14" y="422.46" width="58.75" height="30.16"/><polyline class="cls-3" points="137.62 427.08 133.14 452.62 137.62 447.99 187.41 447.99 191.89 452.62 187.41 427.08"/><polyline class="cls-2" points="191.89 422.46 187.41 427.08 137.62 427.08 133.14 422.46"/><rect class="cls-2" x="191.89" y="422.46" width="58.75" height="30.16"/><polyline class="cls-3" points="196.36 427.08 191.89 452.62 196.36 447.99 246.16 447.99 250.63 452.62 246.16 427.08"/><polyline class="cls-2" points="250.63 422.46 246.16 427.08 196.36 427.08 191.89 422.46"/><rect class="cls-2" x="250.63" y="422.46" width="58.75" height="30.16"/><polyline class="cls-3" points="255.11 427.08 250.63 452.62 255.11 447.99 304.9 447.99 309.38 452.62 304.9 427.08"/><polyline class="cls-2" points="309.38 422.46 304.9 427.08 255.11 427.08 250.63 422.46"/><rect class="cls-2" x="309.38" y="422.46" width="58.75" height="30.16"/><polyline class="cls-3" points="313.85 427.08 309.38 452.62 313.85 447.99 363.65 447.99 368.12 452.62 363.65 427.08"/><polyline class="cls-2" points="368.12 422.46 363.65 427.08 313.85 427.08 309.38 422.46"/><rect class="cls-2" x="15.65" y="458.47" width="35.25" height="30.16"/><polyline class="cls-3" points="20.21 463.09 15.65 488.63 20.21 484.01 46.34 484.01 50.9 488.63 46.34 463.09"/><polyline class="cls-2" points="50.9 458.47 46.34 463.09 20.21 463.09 15.65 458.47"/><rect class="cls-2" x="50.9" y="458.47" width="35.25" height="30.16"/><polyline class="cls-3" points="55.46 463.09 50.9 488.63 55.46 484.01 81.58 484.01 86.15 488.63 81.58 463.09"/><polyline class="cls-2" points="86.15 458.47 81.58 463.09 55.46 463.09 50.9 458.47"/><rect class="cls-2" x="86.15" y="458.47" width="35.25" height="30.16"/><polyline class="cls-3" points="90.71 463.09 86.15 488.63 90.71 484.01 116.83 484.01 121.39 488.63 116.83 463.09"/><polyline class="cls-2" points="121.39 458.47 116.83 463.09 90.71 463.09 86.15 458.47"/><rect class="cls-2" x="121.39" y="458.47" width="35.25" height="30.16"/><polyline class="cls-3" points="125.95 463.09 121.39 488.63 125.95 484.01 152.08 484.01 156.64 488.63 152.08 463.09"/><polyline class="cls-2" points="156.64 458.47 152.08 463.09 125.95 463.09 121.39 458.47"/><rect class="cls-2" x="156.64" y="458.47" width="35.25" height="30.16"/><polyline class="cls-3" points="161.2 463.09 156.64 488.63 161.2 484.01 187.33 484.01 191.89 488.63 187.33 463.09"/><polyline class="cls-2" points="191.89 458.47 187.33 463.09 161.2 463.09 156.64 458.47"/><rect class="cls-2" x="191.89" y="458.47" width="35.25" height="30.16"/><polyline class="cls-3" points="196.45 463.09 191.89 488.63 196.45 484.01 222.57 484.01 227.13 488.63 222.57 463.09"/><polyline class="cls-2" points="227.13 458.47 222.57 463.09 196.45 463.09 191.89 458.47"/><rect class="cls-2" x="227.13" y="458.47" width="35.25" height="30.16"/><polyline class="cls-3" points="231.7 463.09 227.13 488.63 231.7 484.01 257.82 484.01 262.38 488.63 257.82 463.09"/><polyline class="cls-2" points="262.38 458.47 257.82 463.09 231.7 463.09 227.13 458.47"/><rect class="cls-2" x="262.38" y="458.47" width="35.25" height="30.16"/><polyline class="cls-3" points="266.94 463.09 262.38 488.63 266.94 484.01 293.07 484.01 297.63 488.63 293.07 463.09"/><polyline class="cls-2" points="297.63 458.47 293.07 463.09 266.94 463.09 262.38 458.47"/><rect class="cls-2" x="297.63" y="458.47" width="35.25" height="30.16"/><polyline class="cls-3" points="302.19 463.09 297.63 488.63 302.19 484.01 328.31 484.01 332.88 488.63 328.31 463.09"/><polyline class="cls-2" points="332.88 458.47 328.31 463.09 302.19 463.09 297.63 458.47"/><rect class="cls-2" x="332.88" y="458.47" width="35.25" height="30.16"/><polyline class="cls-3" points="337.44 463.09 332.88 488.63 337.44 484.01 363.56 484.01 368.12 488.63 363.56 463.09"/><polyline class="cls-2" points="368.12 458.47 363.56 463.09 337.44 463.09 332.88 458.47"/><rect class="cls-2" x="15.65" y="494.48" width="35.25" height="30.16"/><polyline class="cls-3" points="20.21 499.11 15.65 524.64 20.21 520.02 46.34 520.02 50.9 524.64 46.34 499.11"/><polyline class="cls-2" points="50.9 494.48 46.34 499.11 20.21 499.11 15.65 494.48"/><rect class="cls-2" x="50.9" y="494.48" width="35.25" height="30.16"/><polyline class="cls-3" points="55.46 499.11 50.9 524.64 55.46 520.02 81.58 520.02 86.15 524.64 81.58 499.11"/><polyline class="cls-2" points="86.15 494.48 81.58 499.11 55.46 499.11 50.9 494.48"/><rect class="cls-2" x="86.15" y="494.48" width="35.25" height="30.16"/><polyline class="cls-3" points="90.71 499.11 86.15 524.64 90.71 520.02 116.83 520.02 121.39 524.64 116.83 499.11"/><polyline class="cls-2" points="121.39 494.48 116.83 499.11 90.71 499.11 86.15 494.48"/><rect class="cls-2" x="121.39" y="494.48" width="35.25" height="30.16"/><polyline class="cls-3" points="125.95 499.11 121.39 524.64 125.95 520.02 152.08 520.02 156.64 524.64 152.08 499.11"/><polyline class="cls-2" points="156.64 494.48 152.08 499.11 125.95 499.11 121.39 494.48"/><rect class="cls-2" x="156.64" y="494.48" width="35.25" height="30.16"/><polyline class="cls-3" points="161.2 499.11 156.64 524.64 161.2 520.02 187.33 520.02 191.89 524.64 187.33 499.11"/><polyline class="cls-2" points="191.89 494.48 187.33 499.11 161.2 499.11 156.64 494.48"/><rect class="cls-2" x="191.89" y="494.48" width="35.25" height="30.16"/><polyline class="cls-3" points="196.45 499.11 191.89 524.64 196.45 520.02 222.57 520.02 227.13 524.64 222.57 499.11"/><polyline class="cls-2" points="227.13 494.48 222.57 499.11 196.45 499.11 191.89 494.48"/><rect class="cls-2" x="227.13" y="494.48" width="35.25" height="30.16"/><polyline class="cls-3" points="231.7 499.11 227.13 524.64 231.7 520.02 257.82 520.02 262.38 524.64 257.82 499.11"/><polyline class="cls-2" points="262.38 494.48 257.82 499.11 231.7 499.11 227.13 494.48"/><rect class="cls-2" x="262.38" y="494.48" width="35.25" height="30.16"/><polyline class="cls-3" points="266.94 499.11 262.38 524.64 266.94 520.02 293.07 520.02 297.63 524.64 293.07 499.11"/><polyline class="cls-2" points="297.63 494.48 293.07 499.11 266.94 499.11 262.38 494.48"/><rect class="cls-2" x="297.63" y="494.48" width="35.25" height="30.16"/><polyline class="cls-3" points="302.19 499.11 297.63 524.64 302.19 520.02 328.31 520.02 332.88 524.64 328.31 499.11"/><polyline class="cls-2" points="332.88 494.48 328.31 499.11 302.19 499.11 297.63 494.48"/><rect class="cls-2" x="332.88" y="494.48" width="35.25" height="30.16"/><polyline class="cls-3" points="337.44 499.11 332.88 524.64 337.44 520.02 363.56 520.02 368.12 524.64 363.56 499.11"/><polyline class="cls-2" points="368.12 494.48 363.56 499.11 337.44 499.11 332.88 494.48"/><rect class="cls-2" x="15.65" y="529.74" width="35.25" height="30.16"/><polyline class="cls-3" points="20.21 534.36 15.65 559.9 20.21 555.27 46.34 555.27 50.9 559.9 46.34 534.36"/><polyline class="cls-2" points="50.9 529.74 46.34 534.36 20.21 534.36 15.65 529.74"/><rect class="cls-2" x="50.9" y="529.74" width="35.25" height="30.16"/><polyline class="cls-3" points="55.46 534.36 50.9 559.9 55.46 555.27 81.58 555.27 86.15 559.9 81.58 534.36"/><polyline class="cls-2" points="86.15 529.74 81.58 534.36 55.46 534.36 50.9 529.74"/><rect class="cls-2" x="86.15" y="529.74" width="35.25" height="30.16"/><polyline class="cls-3" points="90.71 534.36 86.15 559.9 90.71 555.27 116.83 555.27 121.39 559.9 116.83 534.36"/><polyline class="cls-2" points="121.39 529.74 116.83 534.36 90.71 534.36 86.15 529.74"/><rect class="cls-2" x="121.39" y="529.74" width="35.25" height="30.16"/><polyline class="cls-3" points="125.95 534.36 121.39 559.9 125.95 555.27 152.08 555.27 156.64 559.9 152.08 534.36"/><polyline class="cls-2" points="156.64 529.74 152.08 534.36 125.95 534.36 121.39 529.74"/><rect class="cls-2" x="156.64" y="529.74" width="70.49" height="30.16"/><polyline class="cls-3" points="161.2 534.36 156.64 559.9 161.2 555.27 222.57 555.27 227.13 559.9 222.57 534.36"/><polyline class="cls-2" points="227.13 529.74 222.57 534.36 161.2 534.36 156.64 529.74"/><rect class="cls-2" x="227.13" y="529.74" width="35.25" height="30.16"/><polyline class="cls-3" points="231.7 534.36 227.13 559.9 231.7 555.27 257.82 555.27 262.38 559.9 257.82 534.36"/><polyline class="cls-2" points="262.38 529.74 257.82 534.36 231.7 534.36 227.13 529.74"/><rect class="cls-2" x="262.38" y="529.74" width="35.25" height="30.16"/><polyline class="cls-3" points="266.94 534.36 262.38 559.9 266.94 555.27 293.07 555.27 297.63 559.9 293.07 534.36"/><polyline class="cls-2" points="297.63 529.74 293.07 534.36 266.94 534.36 262.38 529.74"/><rect class="cls-2" x="297.63" y="529.74" width="35.25" height="30.16"/><polyline class="cls-3" points="302.19 534.36 297.63 559.9 302.19 555.27 328.31 555.27 332.88 559.9 328.31 534.36"/><polyline class="cls-2" points="332.88 529.74 328.31 534.36 302.19 534.36 297.63 529.74"/><rect class="cls-2" x="332.88" y="529.74" width="35.25" height="30.16"/><polyline class="cls-3" points="337.44 534.36 332.88 559.9 337.44 555.27 363.56 555.27 368.12 559.9 363.56 534.36"/><polyline class="cls-2" points="368.12 529.74 363.56 534.36 337.44 534.36 332.88 529.74"/><path class="cls-2" d="M147.1,6.38h89.54v2.24c0,3.7-3,6.7-6.7,6.7h-76.14c-3.7,0-6.7-3-6.7-6.7v-2.24h0Z"/><path class="cls-2" d="M253.46,6.38v41.25c0,1.1-.9,2-2,2h-119.36c-1.1,0-2-.9-2-2V6.38"/><polygon class="cls-2" points="43.68 440.8 43.68 437.34 47.37 433.69 51.01 437.34 51.01 440.8 43.68 440.8"/><line class="cls-2" x1="43.28" y1="442.68" x2="51.41" y2="442.68"/><rect class="cls-2" x="217.81" y="435.59" width="6.88" height="6.88"/><polygon class="cls-2" points="165.99 443.22 165.99 443.22 160.11 439.85 165.99 435.9 165.99 435.9 165.99 443.22"/><polyline class="cls-2" points="352.67 541.63 352.67 547.13 343.67 547.13"/><polyline class="cls-2" points="346.11 549.57 343.67 547.13 346.11 544.69"/><line class="cls-2" x1="10.46" y1="559.9" x2="373.39" y2="559.9"/><line class="cls-2" x1="10.46" y1="452.62" x2="373.39" y2="452.62"/><line class="cls-2" x1="10.46" y1="458.47" x2="373.39" y2="458.47"/><line class="cls-2" x1="10.46" y1="488.63" x2="373.39" y2="488.63"/><line class="cls-2" x1="10.46" y1="494.48" x2="373.39" y2="494.48"/><line class="cls-2" x1="10.46" y1="524.64" x2="373.39" y2="524.64"/><line class="cls-2" x1="10.46" y1="529.74" x2="373.39" y2="529.74"/><rect class="cls-2" x="68.96" y="576.99" width="6.63" height="6"/><rect class="cls-2" x="307.71" y="576.99" width="6.63" height="6"/><polygon class="cls-2" points="356.92 513.41 345.51 513.41 341.51 510.08 345.51 506.09 356.92 506.09 356.92 513.41"/><line class="cls-2" x1="348.29" y1="507.75" x2="352.3" y2="511.76"/><line class="cls-2" x1="348.29" y1="511.76" x2="352.3" y2="507.75"/></g><g id="Layer_3"><path class="cls-1" d="M41.75,481.52l-.64.77-1.45-1.09c-.35.19-.73.34-1.13.46-.41.11-.85.17-1.33.17-1.46,0-2.6-.47-3.42-1.42-.73-.92-1.09-2.08-1.09-3.47,0-1.26.31-2.34.95-3.24.81-1.15,2.01-1.73,3.59-1.73s2.88.53,3.68,1.59c.62.83.93,1.88.93,3.17,0,.6-.07,1.18-.22,1.73-.23.85-.61,1.54-1.14,2.07l1.29,1ZM38.1,480.64c.23-.04.43-.11.6-.21l-1.04-.8.64-.78,1.22.95c.39-.44.65-.93.79-1.48.14-.55.21-1.07.21-1.57,0-1.1-.29-1.98-.87-2.65-.58-.67-1.37-1-2.37-1s-1.82.32-2.41.96-.89,1.63-.89,2.96c0,1.12.28,2.02.85,2.68s1.4,1,2.5,1c.26,0,.51-.02.74-.05Z"/><path class="cls-1" d="M69.04,472.22l1.77,7.58,2.12-7.58h1.37l2.13,7.59,1.77-7.59h1.39l-2.46,9.32h-1.33l-2.16-7.73-2.18,7.73h-1.33l-2.45-9.32h1.38Z"/><path class="cls-1" d="M105.79,472.22h6.81v1.14h-5.57v2.83h5.15v1.08h-5.15v3.16h5.66v1.11h-6.9v-9.32Z"/><path class="cls-1" d="M139.07,472.22h4.26c.7,0,1.28.1,1.74.31.87.4,1.3,1.13,1.3,2.2,0,.56-.12,1.02-.35,1.37s-.56.64-.97.86c.37.15.64.34.83.58.19.24.29.63.31,1.17l.04,1.25c.01.36.04.62.09.79.08.3.21.49.41.57v.21h-1.56c-.04-.08-.08-.18-.1-.31s-.05-.37-.06-.74l-.08-1.56c-.03-.61-.25-1.02-.66-1.23-.24-.11-.61-.17-1.11-.17h-2.81v4h-1.27v-9.32ZM143.19,476.5c.58,0,1.04-.12,1.38-.36.34-.24.51-.66.51-1.28,0-.66-.24-1.12-.71-1.36-.25-.13-.59-.19-1.01-.19h-3.02v3.19h2.86Z"/><path class="cls-1" d="M96.96,439.23c.03.31.11.55.24.72.24.3.65.45,1.24.45.35,0,.66-.08.92-.23s.4-.38.4-.7c0-.24-.11-.42-.32-.54-.14-.08-.4-.17-.8-.27l-.75-.19c-.48-.12-.83-.25-1.05-.39-.4-.25-.6-.6-.6-1.05,0-.53.19-.95.57-1.28.38-.33.89-.49,1.53-.49.84,0,1.44.25,1.81.74.23.31.35.65.34,1.01h-.87c-.02-.21-.09-.4-.23-.57-.22-.24-.59-.37-1.13-.37-.36,0-.63.07-.81.2-.18.13-.28.31-.28.53,0,.24.12.44.36.58.14.09.34.16.62.23l.62.15c.68.16,1.13.32,1.36.47.36.24.54.62.54,1.13s-.19.92-.56,1.28c-.38.36-.95.54-1.72.54-.83,0-1.41-.19-1.76-.56s-.53-.84-.55-1.4h.89Z"/><path class="cls-1" d="M105.1,435.41h1.02c-.13.36-.42,1.17-.87,2.44-.33.96-.62,1.74-.84,2.34-.53,1.42-.91,2.28-1.13,2.6s-.59.47-1.13.47c-.13,0-.23,0-.3-.02-.07-.01-.16-.03-.26-.06v-.85c.16.04.28.07.35.08.07,0,.13.02.19.02.17,0,.3-.03.38-.09.08-.06.15-.13.2-.21.02-.03.08-.17.18-.42.11-.26.18-.45.23-.57l-2.03-5.73h1.05l1.47,4.53,1.48-4.53Z"/><path class="cls-1" d="M106.92,435.41h.91v.79c.22-.27.42-.47.6-.6.3-.21.65-.32,1.04-.32.44,0,.79.11,1.06.33.15.12.29.31.41.55.21-.3.45-.52.72-.66s.59-.22.93-.22c.74,0,1.24.27,1.51.81.14.29.22.68.22,1.17v3.7h-.96v-3.87c0-.37-.09-.62-.27-.76s-.41-.21-.67-.21c-.36,0-.67.12-.94.37-.26.25-.39.66-.39,1.23v3.24h-.94v-3.63c0-.38-.04-.65-.13-.83-.14-.26-.4-.39-.78-.39-.35,0-.67.14-.95.41-.29.27-.43.77-.43,1.49v2.95h-.92v-5.56Z"/><path class="cls-1" d="M275.23,435.43c.24-.35.69-.53,1.37-.53.06,0,.13,0,.2,0,.07,0,.14,0,.23.02v.94c-.11,0-.18-.01-.23-.01s-.09,0-.13,0c-.31,0-.5.08-.56.24-.06.16-.09.57-.09,1.24h1.02v.81h-1.02v5.28h-1v-5.28h-.84v-.81h.84v-.96c.02-.43.09-.74.22-.94Z"/><path class="cls-1" d="M277.97,437.3h.96v.87c.29-.36.59-.62.91-.77.32-.16.68-.23,1.07-.23.86,0,1.44.3,1.74.91.17.33.25.81.25,1.42v3.93h-1.03v-3.86c0-.37-.05-.67-.16-.9-.18-.38-.51-.57-.98-.57-.24,0-.44.02-.59.07-.28.08-.52.25-.73.5-.17.2-.28.41-.33.62-.05.22-.08.52-.08.92v3.21h-1.01v-6.12Z"/><path class="cls-1" d="M333.95,439.72c.23-.03.39-.13.47-.3.04-.09.07-.22.07-.4,0-.35-.12-.61-.37-.77-.25-.16-.6-.24-1.05-.24-.53,0-.91.15-1.13.44-.12.16-.21.4-.24.72h-.95c.02-.76.26-1.28.72-1.58.46-.3,1-.44,1.61-.44.71,0,1.29.14,1.73.41.44.27.66.7.66,1.28v3.53c0,.11.02.19.07.26.04.06.13.1.27.1.04,0,.1,0,.15,0,.06,0,.12-.01.18-.03v.76c-.16.05-.28.07-.36.09-.08.01-.2.02-.34.02-.35,0-.6-.13-.76-.38-.08-.13-.14-.32-.17-.57-.21.27-.5.51-.89.71-.39.2-.81.3-1.28.3-.56,0-1.02-.17-1.37-.52-.36-.34-.53-.78-.53-1.29,0-.57.17-1.01.52-1.32s.81-.5,1.38-.58l1.62-.21ZM331.81,442.5c.21.17.47.26.76.26.36,0,.7-.08,1.04-.25.56-.28.85-.73.85-1.36v-.83c-.12.08-.28.15-.48.2-.2.05-.39.09-.57.12l-.61.08c-.37.05-.64.13-.83.23-.31.18-.47.46-.47.86,0,.3.11.53.32.7Z"/><path class="cls-1" d="M337.17,435.03h1.02v8.39h-1.02v-8.39Z"/><path class="cls-1" d="M339.91,435.59h1.03v1.71h.96v.84h-.96v3.99c0,.21.07.36.21.43.08.04.21.06.4.06.05,0,.1,0,.16,0,.06,0,.12,0,.2-.02v.82c-.12.03-.24.06-.36.07s-.26.02-.41.02c-.47,0-.79-.12-.96-.37-.17-.25-.25-.56-.25-.96v-4.05h-.82v-.84h.82v-1.71Z"/><path class="cls-1" d="M180.98,472.22v1.11h-3.16v8.21h-1.28v-8.21h-3.16v-1.11h7.61Z"/><path class="cls-1" d="M200.02,472.22h1.48l2.7,4.48,2.7-4.48h1.5l-3.55,5.57v3.76h-1.27v-3.76l-3.55-5.57Z"/><path class="cls-1" d="M236.45,472.22v5.76c0,.68.13,1.24.39,1.69.38.68,1.03,1.02,1.93,1.02,1.09,0,1.82-.37,2.21-1.1.21-.4.32-.93.32-1.61v-5.76h1.28v5.24c0,1.15-.16,2.03-.47,2.65-.57,1.13-1.65,1.69-3.24,1.69s-2.67-.56-3.24-1.69c-.31-.62-.47-1.5-.47-2.65v-5.24h1.28Z"/><path class="cls-1" d="M272.62,472.22h1.28v9.32h-1.28v-9.32Z"/><path class="cls-1" d="M314.79,473.56c.62.83.93,1.88.93,3.17,0,1.39-.36,2.55-1.07,3.47-.83,1.08-2.02,1.62-3.57,1.62-1.44,0-2.58-.47-3.4-1.42-.74-.91-1.1-2.07-1.1-3.47,0-1.26.32-2.34.95-3.24.81-1.15,2-1.73,3.59-1.73s2.88.53,3.68,1.59ZM313.67,479.5c.5-.8.75-1.72.75-2.75,0-1.1-.29-1.98-.87-2.65-.58-.67-1.37-1-2.37-1s-1.76.33-2.38.99-.92,1.64-.92,2.93c0,1.03.26,1.91.79,2.61.53.71,1.38,1.06,2.56,1.06,1.12,0,1.93-.4,2.43-1.2Z"/><path class="cls-1" d="M340.43,472.22h4.2c.83,0,1.5.23,2.01.7.51.47.77,1.12.77,1.97,0,.73-.23,1.36-.68,1.9-.46.54-1.15.81-2.09.81h-2.93v3.94h-1.27v-9.32ZM345.36,473.51c-.28-.13-.66-.2-1.15-.2h-2.51v3.23h2.51c.57,0,1.03-.12,1.38-.36.35-.24.53-.67.53-1.28,0-.69-.25-1.15-.76-1.4Z"/><path class="cls-1" d="M35.9,507.48h1.44l3.4,9.32h-1.39l-.95-2.79h-3.71l-1.02,2.79h-1.3l3.53-9.32ZM37.99,512.98l-1.42-4.12-1.51,4.12h2.94Z"/><path class="cls-1" d="M69.25,513.79c.03.53.15.96.36,1.29.41.62,1.12.93,2.15.93.46,0,.88-.07,1.25-.2.73-.26,1.09-.73,1.09-1.41,0-.51-.15-.87-.46-1.08-.31-.21-.8-.4-1.47-.55l-1.23-.29c-.8-.19-1.37-.39-1.71-.62-.58-.39-.87-.97-.87-1.75,0-.84.28-1.53.85-2.06.57-.54,1.37-.81,2.41-.81.96,0,1.77.24,2.44.71.67.47,1,1.23,1,2.26h-1.19c-.06-.5-.19-.88-.39-1.15-.37-.49-1-.73-1.89-.73-.72,0-1.23.16-1.55.47s-.47.68-.47,1.09c0,.46.19.79.56,1,.24.14.79.3,1.65.51l1.27.3c.61.14,1.09.34,1.42.59.58.44.87,1.07.87,1.9,0,1.03-.37,1.77-1.11,2.22-.74.44-1.59.67-2.57.67-1.14,0-2.03-.3-2.67-.89-.64-.59-.96-1.39-.95-2.39h1.19Z"/><path class="cls-1" d="M103.72,507.48h3.75c1.27,0,2.26.45,2.96,1.36.63.82.94,1.87.94,3.16,0,.99-.19,1.88-.55,2.68-.65,1.41-1.77,2.12-3.36,2.12h-3.74v-9.32ZM107.22,515.72c.42,0,.77-.04,1.04-.13.48-.16.88-.48,1.19-.95.25-.38.42-.86.53-1.45.06-.35.09-.68.09-.98,0-1.15-.23-2.05-.68-2.69-.45-.64-1.18-.96-2.18-.96h-2.2v7.16h2.22Z"/><path class="cls-1" d="M139.03,507.48h6.51v1.14h-5.24v2.83h4.6v1.11h-4.6v4.24h-1.27v-9.32Z"/><path class="cls-1" d="M180.4,507.74c.92.49,1.48,1.34,1.69,2.56h-1.26c-.15-.68-.46-1.18-.93-1.49-.47-.31-1.07-.47-1.78-.47-.85,0-1.57.32-2.15.97-.58.65-.87,1.61-.87,2.89,0,1.11.24,2.01.72,2.71.48.7,1.26,1.04,2.35,1.04.83,0,1.52-.24,2.06-.73.54-.49.82-1.28.84-2.37h-2.94v-1.05h4.12v4.99h-.82l-.31-1.2c-.42.47-.8.79-1.12.98-.55.31-1.25.47-2.09.47-1.09,0-2.03-.36-2.82-1.07-.86-.9-1.29-2.13-1.29-3.69s.42-2.8,1.26-3.73c.8-.88,1.83-1.32,3.1-1.32.87,0,1.62.17,2.25.51Z"/><path class="cls-1" d="M200.78,507.48h1.28v3.85h4.82v-3.85h1.28v9.32h-1.28v-4.36h-4.82v4.36h-1.28v-9.32Z"/><path class="cls-1" d="M239.69,514.02c0,.79-.12,1.4-.35,1.83-.43.79-1.26,1.19-2.48,1.19-.7,0-1.3-.19-1.8-.57s-.75-1.05-.75-2.02v-.67h1.19v.67c0,.51.11.89.34,1.15.23.26.58.38,1.07.38.68,0,1.12-.23,1.33-.69.13-.28.19-.82.19-1.61v-6.21h1.26v6.54Z"/><path class="cls-1" d="M270.33,507.48h1.24v4.56l4.69-4.56h1.78l-4.01,3.76,4.09,5.56h-1.66l-3.36-4.69-1.53,1.44v3.25h-1.24v-9.32Z"/><path class="cls-1" d="M304.06,507.48h1.27v8.21h4.71v1.11h-5.98v-9.32Z"/><path class="cls-1" d="M32.48,551.01l5.77-7.17h-5.35v-1.11h6.99v1.08l-5.8,7.13h5.8v1.11h-7.41v-1.05Z"/><path class="cls-1" d="M69.21,552.06h-1.53l3.32-4.78-3.11-4.54h1.58l2.37,3.57,2.35-3.57h1.51l-3.11,4.54,3.26,4.78h-1.57l-2.5-3.83-2.57,3.83Z"/><path class="cls-1" d="M110.3,543.41c.65.62,1.01,1.33,1.08,2.12h-1.24c-.14-.6-.41-1.08-.82-1.43-.41-.35-.99-.53-1.73-.53-.91,0-1.64.32-2.2.97-.56.65-.84,1.64-.84,2.97,0,1.09.25,1.98.76,2.66s1.26,1.02,2.26,1.02c.92,0,1.62-.36,2.1-1.07.25-.38.45-.87.57-1.49h1.24c-.11.98-.47,1.81-1.09,2.47-.74.8-1.73,1.2-2.98,1.2-1.08,0-1.98-.33-2.71-.99-.96-.87-1.45-2.21-1.45-4.02,0-1.38.36-2.5,1.09-3.39.78-.96,1.86-1.43,3.24-1.43,1.17,0,2.08.31,2.73.93Z"/><path class="cls-1" d="M139.66,542.73l2.69,7.94,2.66-7.94h1.42l-3.42,9.32h-1.35l-3.42-9.32h1.4Z"/><path class="cls-1" d="M235.05,542.73h4.06c1.11,0,1.89.33,2.36.98.27.39.41.83.41,1.33,0,.59-.17,1.07-.5,1.45-.17.2-.43.38-.75.54.48.18.84.39,1.08.62.42.41.63.97.63,1.68,0,.6-.19,1.14-.57,1.63-.57.73-1.48,1.09-2.72,1.09h-3.99v-9.32ZM238.63,546.67c.54,0,.96-.07,1.26-.22.47-.23.71-.65.71-1.26s-.25-1.02-.75-1.23c-.28-.12-.71-.18-1.27-.18h-2.29v2.89h2.34ZM239.06,550.98c.79,0,1.35-.22,1.68-.67.21-.28.32-.63.32-1.03,0-.68-.31-1.14-.92-1.38-.33-.13-.76-.2-1.3-.2h-2.55v3.28h2.77Z"/><path class="cls-1" d="M270.33,542.73h1.5l4.68,7.53v-7.53h1.21v9.32h-1.43l-4.75-7.53v7.53h-1.21v-9.32Z"/><path class="cls-1" d="M304.03,542.73h1.82l2.7,7.88,2.68-7.88h1.81v9.32h-1.21v-5.5c0-.19,0-.5.01-.95,0-.44.01-.91.01-1.42l-2.68,7.87h-1.26l-2.7-7.87v.29c0,.23,0,.58.02,1.04s.02.81.02,1.03v5.5h-1.21v-9.32Z"/></g></svg>